<svg version="1.1" viewBox="0.0 0.0 960.0 540.0" fill="none" stroke="none" stroke-linecap="square" stroke-miterlimit="10" xmlns:xlink="http://www.w3.org/1999/xlink" xmlns="http://www.w3.org/2000/svg"><clipPath id="g2c7dfdbe960_0_228.0"><path d="m0 0l960.0 0l0 540.0l-960.0 0l0 -540.0z" clip-rule="nonzero"/></clipPath><g clip-path="url(#g2c7dfdbe960_0_228.0)"><path fill="#ffffff" d="m0 0l960.0 0l0 540.0l-960.0 0z" fill-rule="evenodd"/><path fill="#000000" fill-opacity="0.0" d="m0.015748031 0l960.0 0l0 540.0l-960.0 0z" fill-rule="evenodd"/><path fill="#000000" d="m134.26184 234.60938l0 13.1875l-21.4375 0l0 58.203125l-15.671875 0l0 -58.203125l-21.390625 0l0 -13.1875l58.5 0zm47.06836 0q8.640625 0 14.578125 5.578125q5.9375 5.5625 5.9375 14.15625q0 6.734375 -2.8125 11.15625q-2.8125 4.421875 -8.515625 6.703125l0 0.203125q5.03125 1.3125 7.703125 6.0q2.6875 4.6875 2.9375 14.359375q0.203125 9.671875 2.78125 13.234375l-15.71875 0q-1.375 -3.46875 -1.859375 -11.234375q-0.734375 -10.546875 -3.546875 -13.59375q-2.796875 -3.046875 -8.609375 -3.046875l-16.0625 0l0 27.875l-15.71875 0l0 -71.390625l38.90625 0zm-5.65625 32.28125q4.921875 0 7.6875 -2.390625q2.765625 -2.390625 2.765625 -7.8125q0 -5.078125 -2.671875 -7.46875q-2.65625 -2.40625 -7.78125 -2.40625l-17.53125 0l0 20.078125l17.53125 0zm70.99805 -33.984375q15.90625 0 25.5 10.671875q9.609375 10.65625 9.609375 27.015625q0 15.96875 -9.65625 26.546875q-9.640625 10.5625 -25.453125 10.5625q-10.3125 0 -18.34375 -4.734375q-8.03125 -4.734375 -12.40625 -13.296875q-4.359375 -8.578125 -4.359375 -19.078125q0 -16.5 9.640625 -27.09375q9.640625 -10.59375 25.46875 -10.59375zm-19.4375 37.6875q0 10.546875 5.046875 17.21875q5.0625 6.65625 14.390625 6.65625q9.21875 0 14.296875 -6.5625q5.078125 -6.5625 5.078125 -17.3125q0 -11.28125 -5.15625 -17.890625q-5.140625 -6.609375 -14.328125 -6.609375q-9.125 0 -14.234375 6.6875q-5.09375 6.6875 -5.09375 17.8125zm15.921875 -55.078125l0 11.671875l-13.53125 0l0 -11.671875l13.53125 0zm20.5625 0l0 11.671875l-13.484375 0l0 -11.671875l13.484375 0zm44.33008 19.09375l29.78125 47.90625l0.1875 0l0 -47.90625l14.703125 0l0 71.390625l-15.671875 0l-29.734375 -47.796875l-0.203125 0l0 47.796875l-14.6875 0l0 -71.390625l15.625 0zm74.12109 0l29.78125 47.90625l0.1875 0l0 -47.90625l14.703125 0l0 71.390625l-15.671875 0l-29.734375 -47.796875l-0.203125 0l0 47.796875l-14.6875 0l0 -71.390625l15.625 0zm74.21484 0l0 71.390625l-15.71875 0l0 -71.390625l15.71875 0zm29.398438 0l29.78125 47.90625l0.1875 0l0 -47.90625l14.703125 0l0 71.390625l-15.671875 0l-29.734375 -47.796875l-0.203125 0l0 47.796875l-14.6875 0l0 -71.390625l15.625 0zm90.48047 -1.703125q11.609375 0 20.203125 6.71875q8.59375 6.703125 9.921875 18.46875l-15.0 0q-1.515625 -6.0 -5.46875 -9.0q-3.953125 -3.0 -9.609375 -3.0q-9.328125 0 -14.390625 6.765625q-5.046875 6.75 -5.046875 17.734375q0 10.40625 5.0 17.140625q5.015625 6.734375 14.4375 6.734375q7.515625 0 11.875 -3.828125q4.375 -3.828125 5.109375 -11.546875l-15.8125 0l0 -11.71875l30.03125 0l0 38.625l-10.015625 0l-1.609375 -8.0625q-3.859375 4.84375 -8.75 7.3125q-4.875 2.453125 -10.875 2.453125q-10.21875 0 -18.28125 -4.703125q-8.046875 -4.71875 -12.421875 -13.3125q-4.359375 -8.59375 -4.359375 -19.09375q0 -16.5 9.609375 -27.09375q9.625 -10.59375 25.453125 -10.59375zm97.30078 1.703125l0 13.1875l-37.6875 0l0 15.28125l34.5625 0l0 12.203125l-34.5625 0l0 17.53125l38.46875 0l0 13.1875l-54.1875 0l0 -71.390625l53.40625 0zm27.013672 0l29.78125 47.90625l0.1875 0l0 -47.90625l14.703125 0l0 71.390625l-15.671875 0l-29.734375 -47.796875l-0.203125 0l0 47.796875l-14.6875 0l0 -71.390625l15.625 0zm94.08984 0l26.703125 71.34375l-16.3125 0l-5.359375 -15.875l-26.71875 0l-5.609375 15.921875l-15.875 0l27.109375 -71.390625l16.0625 0zm-8.296875 17.578125l-9.28125 26.21875l18.5 0l-8.984375 -26.21875l-0.234375 0zm-3.375 -36.671875l0 11.671875l-13.53125 0l0 -11.671875l13.53125 0zm20.5625 0l0 11.671875l-13.484375 0l0 -11.671875l13.484375 0zm48.63086 17.390625q12.9375 0 20.75 6.015625q7.8125 6.0 7.8125 16.984375l-15.1875 0q-0.34375 -5.375 -3.671875 -8.078125q-3.3125 -2.71875 -10.34375 -2.71875q-4.78125 0 -7.84375 2.109375q-3.046875 2.09375 -3.046875 6.0q0 2.6875 1.265625 4.0q1.28125 1.3125 5.203125 2.765625q3.9375 1.4375 17.171875 4.5625q8.875 2.140625 13.859375 7.28125q4.984375 5.125 4.984375 12.984375q0 10.34375 -7.765625 16.625q-7.765625 6.265625 -21.875 6.265625q-13.46875 0 -21.96875 -6.640625q-8.5 -6.640625 -8.5 -18.359375l0 -0.390625l15.1875 0q0.09375 6.640625 4.4375 9.921875q4.34375 3.265625 11.375 3.265625q6.359375 0 10.140625 -2.3125q3.78125 -2.328125 3.78125 -6.578125q0 -3.46875 -2.90625 -5.6875q-2.90625 -2.21875 -9.296875 -3.828125q-8.203125 -1.859375 -14.890625 -3.921875q-6.6875 -2.078125 -11.0625 -6.734375q-4.375 -4.671875 -4.375 -11.953125q0 -9.625 7.6875 -15.59375q7.703125 -5.984375 19.078125 -5.984375z" fill-rule="nonzero"/></g></svg>